<svg xmlns="http://www.w3.org/2000/svg" viewBox="0 0 794.09 381"><defs><style>.cls-1{fill:none;stroke:#03060d;stroke-miterlimit:10;stroke-width:10px;}.cls-2{fill:#9cc395;}.cls-3{fill:#03060d;}.cls-4{fill:#f79f75;}.cls-5{fill:#c1b5ad;}.cls-6{fill:#bbd8e7;}.cls-7{fill:#f7f5d9;}</style></defs><title>draftTrackerLogo</title><g id="Layer_2" data-name="Layer 2"><g id="Layer_1-2" data-name="Layer 1"><polyline class="cls-1" points="50.36 331.33 223.36 113.33 397.36 259.33 570.57 50 743.86 182.83"/><circle class="cls-2" cx="744.09" cy="183" r="50"/><path class="cls-3" d="M787.85,189.22a6.31,6.31,0,0,1-1.94,4.5,6,6,0,0,1-4.44,2,6.17,6.17,0,0,1-5.87-3.75l-5.87-.25a33.09,33.09,0,0,0-7.37,1.63Q756.5,195,755.62,196q-1.37,1.5-2.25,7a44.59,44.59,0,0,0-.75,6.62,8.94,8.94,0,0,0,1.06,4.93q1.06,1.56,4.37,2.62t4.06,1.19h3.07a11.28,11.28,0,0,1,3.07.45q2.27.68,1.93,1.82a18,18,0,0,0-5.57.68l3.18,1.59q0,1.36-3.86,1.36a11.9,11.9,0,0,1-2.79-.45,11.89,11.89,0,0,0-2.33-.45h-3a26.64,26.64,0,0,1-.69,3.46,8.62,8.62,0,0,1-4.61-2.31q-2.66-2.19-3.34-2.19t-2,2.19a7.86,7.86,0,0,0-1.27,3,6.34,6.34,0,0,1-2.54-3q-.46-1.5-1-3-1.15.12-4.27,4.85h-1.44a28.11,28.11,0,0,1-1.87-4.63,23.69,23.69,0,0,0-7.25-1.25,25.78,25.78,0,0,0-5,.75L717,221a28.85,28.85,0,0,1,4.37-2.87q4.25-2.5,6.5-2.5a5.59,5.59,0,0,1,1,.13,5.14,5.14,0,0,0,1,.13,7.61,7.61,0,0,0,2.81-.94q1.94-.93,2.25-1.68a13.61,13.61,0,0,0,.32-3.87q0-7.12-3.75-10.62-3.25-3.12-10.74-4.5-2,7.12-11.24,7.12-3,0-6-3.62t-3-6.62a9.25,9.25,0,0,1,3.87-7.62q-3.12-3.24-3.12-6.62a8.44,8.44,0,0,1,1.94-5.5,7.45,7.45,0,0,1,5.06-2.75q-.25-4,2.62-5.5-1.37-1.37-1.37-4.87a9.4,9.4,0,0,1,9.62-9.62,9.57,9.57,0,0,1,7.37,3.13q3.62-12.37,15.61-12.37a14.74,14.74,0,0,1,11,5,17.09,17.09,0,0,1,1.75,2q-1.5,0,1.5-.56a26.67,26.67,0,0,1,4.37-.56,12,12,0,0,1,8.62,3.62,17.34,17.34,0,0,1,4.5,8.24,18.05,18.05,0,0,1,2.75.75,4.88,4.88,0,0,1,2.75,4.75,6.41,6.41,0,0,1-1,2.37q8,4.5,8,12.49a17,17,0,0,1-1.75,6.25A6,6,0,0,1,787.85,189.22Zm-51.49,5.5V193.1a6.83,6.83,0,0,0-2.81-5.25,8.81,8.81,0,0,0-5.68-2.37,13.45,13.45,0,0,0-6.5,1.62Q728,186.73,736.36,194.72Zm-2.22-15.49a31.54,31.54,0,0,1-3.25-4.37q-5.25,1.37-5.25,3.12a15.16,15.16,0,0,1,4.37.56A20.35,20.35,0,0,0,734.14,179.23Zm8.22-3.87v-5.5c-2.6-.33-3.81-.5-4-.5v1.87Zm15.62-3.5q-1.5-.62-5.62-2.5v10.74Q758.23,176.73,758,171.86Zm6.89,14.74-2.75-3.37-5.06,3.56a23,23,0,0,0-4.43,4.06A42.63,42.63,0,0,1,764.86,186.6Z"/><circle class="cls-4" cx="570.57" cy="50" r="50"/><path class="cls-3" d="M612.53,66.62Q606.93,80,590.26,80a31.81,31.81,0,0,0-6.62.76q-5.35,1.15-5.35,3.19a2.23,2.23,0,0,0,.89,1.46,2.48,2.48,0,0,0,1.53.83q-3.18,0,4.33.19t9.42.19q-11.07,6.49-37,6-8.53-.13-14.64-7.51a23.48,23.48,0,0,1-6-15.66A21.68,21.68,0,0,1,543,53.82,20.41,20.41,0,0,1,558.3,47.4a22.41,22.41,0,0,1,5.41.89,22.44,22.44,0,0,0,4.52.89q4.71,0,11.71-3.88t6.62-3.88q-1.27,13.37-8.91,17.95-5.47,3.18-5.47,6.24,0,1.91,2.29,3.06a8.7,8.7,0,0,0,3.95.89q3.31,0,6.49-4.07t2.8-7.38a35.44,35.44,0,0,1,.51-9.16,9.69,9.69,0,0,1,1.84-3.75,7.56,7.56,0,0,1,2.87-2.74,15.05,15.05,0,0,1-.83,3.82,15,15,0,0,0-.83,3.95,5.84,5.84,0,0,0,1.53,4.33q2.29-.89,4.07-5.73a23.24,23.24,0,0,0,1.78-7.13q-5.35-.26-10.25-4.84t-4.9-9.93a6.33,6.33,0,0,1,.26-1.78q.76,1.15,2.29,3.56,2.17,3.18,3.31,3.18,1.52,0,1.53-3.18a13.21,13.21,0,0,0-2.16-7.38q-2.42-3.95-6.24-3.95-1.78,0-5.34,1.91a14,14,0,0,1-6.49,1.91q-.89,0-7.89-2.29,12.35-2,12.35-3.69,0-4.33-16.93-5.86l-6.11-.51q.51-.64,7.26-1.4,5.73-.63,8-.64,30.3,0,38.44,29.41a4.77,4.77,0,0,0,1.4-3.87,25.58,25.58,0,0,0-2-8.78q-.77-2.06-2.42-6.19,10.44,13.3,10.44,25.2a22.5,22.5,0,0,1-2.93,11.38,46,46,0,0,1-7.13,8.83A62.36,62.36,0,0,0,596,71.07a69.34,69.34,0,0,0,9.17-2.93,26.58,26.58,0,0,0,8.78-6.49A14.38,14.38,0,0,1,612.53,66.62Zm-55.5-50q0,2.29-2.54,2.93l-3.31.51q-1.78.89-5.22,7-.38-1.91-1.15-5.35a10.41,10.41,0,0,0-3.82,2q-1.15.89-3.69,2.67.77-4.58,5.09-9.29,4.58-5.21,8.91-5.22Q557,11.88,557,16.59ZM579.18,28.3a4.24,4.24,0,0,1-2.36,3.63,8.76,8.76,0,0,1-4.65,1.46q-3.06,0-5.47-3.44-2.93-4.2-6-5.48a2.09,2.09,0,0,1,1.53-.63q1.15,0,3.88,1.78t3.5,1.78q.64,0,2.1-1.78A4.19,4.19,0,0,1,575,23.85Q579.18,23.85,579.18,28.3Z"/><circle class="cls-5" cx="397.04" cy="258" r="50"/><path class="cls-3" d="M437.36,256.62c.38,5.52-1.63,9.28-5.64,11.29q-1.76.88-11,2.38c-4,.67-6.33,4.64-6.33,4.64v10.16A33.12,33.12,0,0,1,415,289l.38,4a34.75,34.75,0,0,1-.88,6.14L409,300.26a24.47,24.47,0,0,1-1-5.14,8.69,8.69,0,0,1,.31-1.88,8.7,8.7,0,0,0,.32-1.88,54.67,54.67,0,0,0-1.56-6h-1.95a9.42,9.42,0,0,0-.26,2.76,12,12,0,0,1,.38,3.64q-2.13,1.51-5.89,4a4.61,4.61,0,0,0-1-.25v-8.9c.21-.42-.88-.26-.88-.26H396l-1.5,11.54a35.87,35.87,0,0,1-4.26,0c-.59-2.76-1.63-6.85-3.13-12.54h-1c-.92,3.18-1.42,4.77-1.51,5a11.24,11.24,0,0,0,.31,1.94,11.57,11.57,0,0,1,.31,1.94,16.69,16.69,0,0,1-.25,1.88l-.38,3a.86.86,0,0,1-.63.25q-3.76,0-5-1.88a8.3,8.3,0,0,1-1-5.27l1-15a2.86,2.86,0,0,1,.25-1,3,3,0,0,0,.25-.88q0-1-2.13-4c-.25-.08-1.55-.38-3.89-.88q-2.14-.5-8.4-1.76-8.66-1.63-8.65-13.92,0-18.31,15.05-30.47.62,3.39,2.13,9l4.89,1.13q.76.25,7.65,2.76a78.19,78.19,0,0,1-9.16-6.9q-2.13-2.51-2.13-8.4,0-1.38,4.77-3.26a27.41,27.41,0,0,1,6.4-2,88,88,0,0,1,10.41-.88q15.67,0,25.33,8-3.13,3.64-10.78,7.77,3,.13,8.78-2.38t4.89-2.51q1,0,4,4a56.85,56.85,0,0,1,3.64,5.39,47.17,47.17,0,0,1,5.39,15.43,15.15,15.15,0,0,1-.26,4.14Zm-47.65,2.33q0-5.39-4.7-10.22t-10.1-4.83a11,11,0,0,0-8.4,4,13.09,13.09,0,0,0-3.64,9,5.32,5.32,0,0,0,4.14,5.55,30.91,30.91,0,0,0,7.4.88h6.9Q389.7,263.46,389.71,258.94Zm13.65,15.36v-3.76q-.85-1.57-1.7-3.27a62.07,62.07,0,0,0-2.67-6.79l-1.33,14.18q0,1.7-.73,1.7a1,1,0,0,1-.73-.24q-.85-12.85-.85-11.15v-4.24a.71.71,0,0,0-.6-.37q-4.12,4.25-4.12,13.7,0,5.21,1,6.43a10.79,10.79,0,0,0,2.18-.85,8.83,8.83,0,0,1,2.79-.24,14.26,14.26,0,0,1,5.57,1.45Q403.36,280.84,403.36,274.3ZM431.72,257a12.78,12.78,0,0,0-3.76-9,11.61,11.61,0,0,0-8.65-4q-5.27,0-9.85,4.83t-4.58,10.1q0,4.39,4.26,4.39h14.42Q431.72,263.21,431.72,257Z"/><circle class="cls-6" cx="223.52" cy="113" r="50"/><path class="cls-3" d="M241,146.72A23.83,23.83,0,0,1,223.32,154q-11.79,0-18.71-8.07-6.54-7.69-6.54-19.61,0-12.81,11.15-29.22a110.51,110.51,0,0,1,21.4-23.58,63.25,63.25,0,0,0-1.79,11.66,27.8,27.8,0,0,0,5,15.51q6.15,9,9.36,13.33,5,7.56,5,14.74A24.61,24.61,0,0,1,241,146.72Zm-.13-27.36q-1.92-4.29-4.49-5.7a5,5,0,0,1,.38,2.18,28.41,28.41,0,0,1-1.54,7.69l-1.66,5.13q0,4.49,4.48,4.49,4.74,0,4.74-6.28A18.86,18.86,0,0,0,240.88,119.36Z"/><circle class="cls-7" cx="50" cy="331" r="50"/><path class="cls-3" d="M97.69,338.06q-9.84-5.55-12.62-5.55-2,0-3.15,3.09a4.41,4.41,0,0,1-4.54,3.09,32,32,0,0,1-5.68-1q-2.4,3.66-2.4,4.67c0,.93.69,2,2.06,3.28s2.54,1.89,3.48,1.89a10.89,10.89,0,0,0,2.45-.38,11.22,11.22,0,0,1,2.06-.38q1.55,0,1.55,5.68,0,5.43-2.52,16.65-3.28-12.87-6.94-12.87a6.52,6.52,0,0,0-2.08.76,6.28,6.28,0,0,1-2.33.75q-3.66,0-6.56-6.69-5.8.88-5.8,5.93A4.61,4.61,0,0,0,57,361c1.55,1,2.33,1.73,2.33,2.14q0,3.41-10,10.47-5.3,3.79-7.32,5.3A33.72,33.72,0,0,0,45.59,373q2-4.16,2-6.44,0-1.26-2.9-3.53t-2.9-4.79a12.84,12.84,0,0,1,1.51-5.3,5,5,0,0,0-3.91-1.89q-5,0-5,3.28v3.41q.12,4.17-6.31,4.16-4.92,0-16.53-2.27,13.12-3.28,13.12-7.57a16,16,0,0,1-.5-3q-.51-3.91,5.55-7.06-1.14-5.8-6.06-5.8-.76,0-2.78,2.65t-3.78,2.65q-3,0-7.82-6.56Q7,331.63,2.31,325.2l5.8,3A15.46,15.46,0,0,0,14.17,330q1.77,0,3.47-3.09t4.48-3.09a51.28,51.28,0,0,1,5,1.52q2.39-3.66,2.4-5.43a5.5,5.5,0,0,0-1.83-3.47q-1.83-2-3.34-2a8,8,0,0,0-2,.38,8,8,0,0,1-2,.38q-2.27,0-2.27-5.68,0-1.51,2.9-17.29-.13,1.89,1.64,7.06,2.14,6.31,5,6.31a6.09,6.09,0,0,0,2-.76,5.83,5.83,0,0,1,2.4-.75q2.9,0,4.79,3.28l1.89,3.41a5.78,5.78,0,0,0,4.41-1.89,6.43,6.43,0,0,0,1.77-4.54,4.68,4.68,0,0,0-2.33-4.23q-2.34-1.45-2.34-2.21,0-2.65,8.33-9,6.69-5,8.71-5.93Q52,290.38,52,293.78q0,1.77,2.14,3.79a12.47,12.47,0,0,1,3,3.41q1.26,2.91-.25,7.95,3.41,2.4,5.17,2.4,3.65,0,3.66-3.79,0-.38-.31-2.4a7.55,7.55,0,0,1-.19-2.27q.5-1.77,6.94-1.77,4,0,16.78,2.27l-8.33,2.27q-5,1.51-5,3.41a12.6,12.6,0,0,0,.63,3,12.7,12.7,0,0,1,.63,3.16q0,1.76-2.27,3.28l-4.29,3a19.89,19.89,0,0,0,2,3.28,4.2,4.2,0,0,0,3.41,1.51q1.51,0,2.78-2.65a4.21,4.21,0,0,1,4-2.65q3.4,0,7.7,6.31Q92.64,330.87,97.69,338.06Zm-28-7.32a19.16,19.16,0,0,0-5.93-14,19.15,19.15,0,0,0-14-5.93,20.36,20.36,0,0,0-20.19,19.94,18.23,18.23,0,0,0,6,13.94,19.89,19.89,0,0,0,14.19,5.87,19.66,19.66,0,0,0,14.32-5.62A18.61,18.61,0,0,0,69.68,330.75Zm-1.89,0a17,17,0,0,1-5.17,12.74,17.7,17.7,0,0,1-12.87,5A17.57,17.57,0,0,1,37,343.36a17.52,17.52,0,0,1,.06-25.17,17.89,17.89,0,0,1,25.36.06A17,17,0,0,1,67.79,330.75Z"/></g></g></svg>